<?xml version="1.0" encoding="UTF-8"?>
<svg width="80px" height="80px" viewBox="0 0 80 80" version="1.1" xmlns="http://www.w3.org/2000/svg" xmlns:xlink="http://www.w3.org/1999/xlink">
    <!-- Generator: Sketch 46.2 (44496) - http://www.bohemiancoding.com/sketch -->
    <title>Labor</title>
    <desc>Created with Sketch.</desc>
    <defs></defs>
    <g id="Page-1" stroke="none" stroke-width="1" fill="none" fill-rule="evenodd">
        <g id="Labor" fill="#949494" fill-rule="nonzero">
            <path d="M20.0365792,41.833894 C19.5223932,46.6418284 15.4694698,50.3857631 10.5458151,50.3857631 C5.27444028,50.3857631 1,46.0928755 1,40.7981826 C1,35.5034897 5.27444028,31.2106022 10.5458151,31.2106022 C15.4694698,31.2106022 19.5223932,34.9545369 20.0365792,39.7624712 L77.434779,39.7624712 C78.0042333,39.7624712 78.4658673,40.226175 78.4658673,40.7981826 C78.4658673,41.3701902 78.0042333,41.833894 77.434779,41.833894 L20.0365792,41.833894 Z M17.7129808,69 C17.1435265,69 16.6818926,68.5362962 16.6818926,67.9642886 C16.6818926,67.392281 17.1435265,66.9285772 17.7129808,66.9285772 L25.1027904,66.9285772 C25.6722447,66.9285772 26.1338787,67.392281 26.1338787,67.9642886 C26.1338787,68.5362962 25.6722447,69 25.1027904,69 L17.7129808,69 Z M47.0755287,68.9853965 C46.5060744,68.9853965 46.0444405,68.5216927 46.0444405,67.9496851 C46.0444405,67.3776775 46.5060744,66.9139737 47.0755287,66.9139737 L54.4653383,66.9139737 C55.0347926,66.9139737 55.4964265,67.3776775 55.4964265,67.9496851 C55.4964265,68.5216927 55.0347926,68.9853965 54.4653383,68.9853965 L47.0755287,68.9853965 Z M33.4299691,68.9853965 C32.8605147,68.9853965 32.3988808,68.5216927 32.3988808,67.9496851 C32.3988808,67.3776775 32.8605147,66.9139737 33.4299691,66.9139737 L40.8197786,66.9139737 C41.389233,66.9139737 41.8508669,67.3776775 41.8508669,67.9496851 C41.8508669,68.5216927 41.389233,68.9853965 40.8197786,68.9853965 L33.4299691,68.9853965 Z M61.7568026,68.9853965 C61.1873483,68.9853965 60.7257144,68.5216927 60.7257144,67.9496851 C60.7257144,67.3776775 61.1873483,66.9139737 61.7568026,66.9139737 L69.1455811,66.9139737 C69.7150354,66.9139737 70.1766694,67.3776775 70.1766694,67.9496851 C70.1766694,68.5216927 69.7150354,68.9853965 69.1455811,68.9853965 L61.7568026,68.9853965 Z M18.0294537,40.7981826 C18.0294537,36.6472055 14.6790142,33.282025 10.5458151,33.282025 C6.4132717,33.282025 3.06217652,36.6475825 3.06217652,40.7981826 C3.06217652,44.9487827 6.4132717,48.3143403 10.5458151,48.3143403 C14.6790142,48.3143403 18.0294537,44.9491598 18.0294537,40.7981826 Z M34.6298324,39.9621886 C34.6389179,39.9555222 34.6481424,39.9489796 34.6575053,39.9425645 C41.0012642,35.5960422 48.4948743,33.2343823 56.336651,33.2343823 C64.1784277,33.2343823 71.6720378,35.5960422 78.0157967,39.9425645 C78.4862323,40.2648905 78.6074651,40.9092607 78.2865779,41.3818055 C77.9656907,41.8543504 77.3241968,41.9761268 76.8537613,41.6538008 C70.8497407,37.5400554 63.7604046,35.3058051 56.336651,35.3058051 C48.9938366,35.3058051 41.9781872,37.4916022 36.0163074,41.5199184 C36.0417399,41.5604927 36.0658919,41.6037574 36.0886033,41.6497647 L48.2966883,66.380141 C48.5960854,66.9866409 48.446114,67.7821962 47.9617178,68.1570635 C47.4773217,68.5319309 46.8419318,68.3441556 46.5425347,67.7376557 L36.2597979,46.9075296 C36.5581944,53.6780526 38.0742634,60.3362871 40.7652651,66.4345693 C41.0406541,67.058649 40.8598381,67.8440872 40.3614014,68.1888946 C39.8629647,68.533702 39.2356551,68.3073071 38.9602661,67.6832274 C35.6009176,60.0703539 33.9740129,51.6246178 34.1566994,43.1330948 L25.6092311,29.2422993 C21.2668994,31.3307919 15.9650605,29.8365998 13.377712,25.6297061 C10.6057851,21.1257383 11.9938797,15.2177491 16.4781041,12.4331694 C20.962587,9.64959051 26.8449492,11.043916 29.6166024,15.5486003 C32.2045999,19.7554647 31.1649673,25.1869627 27.3635037,28.1534187 L34.6298324,39.9621886 Z M25.4310435,26.9828432 C28.9466103,24.8012459 30.0348906,20.1690409 27.8623774,16.6375582 C25.689554,13.106134 21.0779089,12.0130129 17.5623023,14.1951972 C14.0469347,16.3781436 12.9587529,21.0096479 15.131937,24.5407482 C17.3037338,28.0719764 21.9152618,29.1651363 25.4310435,26.9828432 Z"></path>
        </g>
    </g>
</svg>