<?xml version="1.0" encoding="UTF-8"?>
<svg width="80px" height="80px" viewBox="0 0 80 80" version="1.1" xmlns="http://www.w3.org/2000/svg" xmlns:xlink="http://www.w3.org/1999/xlink">
    <!-- Generator: Sketch 46.2 (44496) - http://www.bohemiancoding.com/sketch -->
    <title>Transport</title>
    <desc>Created with Sketch.</desc>
    <defs></defs>
    <g id="Page-1" stroke="none" stroke-width="1" fill="none" fill-rule="evenodd" stroke-linecap="round" stroke-linejoin="round">
        <g id="Transport" stroke="#949494" stroke-width="2">
            <path d="M29.6991992,69 L34.807321,69 C35.7304026,69 36.5963327,68.5549119 37.1332094,67.8041505 L53.6638155,44.6933413 L57.9501697,44.6933413 L68.6270881,44.6933413 C71.2118896,44.6933413 75.581373,42.5787399 75.581373,39.9939385 C75.581373,37.5130487 71.2967507,35.4833085 68.8158609,35.4833085 L53.7902413,35.4833085 L37.1332094,12.1949836 C36.5963327,11.4450881 35.7304026,11 34.807321,11 L29.6991992,11 L37.6389126,34.0934906 C37.8727137,34.7749776 37.3670105,35.4833085 36.6474226,35.4833085 L16.5431228,35.4833085 C16.2166671,35.4833085 15.8997367,35.3664079 15.6512147,35.154255 L7.16856321,27.9098835 C7.03694183,27.7973126 6.85423057,27.7635414 6.69143571,27.8215587 L4.32484867,28.6563153 C4.03389615,28.759361 3.91093407,29.1040012 4.07026521,29.3681099 L8.39298841,36.4999104 L10.5101876,39.9939385 L10.5101876,40.0051956 L4.07026521,50.6318901 C3.91093407,50.8951329 4.03389615,51.2397731 4.32484867,51.3428188 L6.69143571,52.1775754 C6.85423057,52.2355927 7.03694183,52.2018214 7.16856321,52.0892505 L15.4433915,45.0223947 C15.6919135,44.8102419 16.007978,44.6933413 16.3352996,44.6933413 L34.2678466,44.6933413 L36.5868075,44.6933413 C37.3063954,44.6933413 37.8120986,45.4025381 37.5782975,46.0831592 L31.6129048,63.4338011" id="Page-1"></path>
        </g>
    </g>
</svg>