<?xml version="1.0" encoding="UTF-8"?>
<svg width="80px" height="80px" viewBox="0 0 80 80" version="1.1" xmlns="http://www.w3.org/2000/svg" xmlns:xlink="http://www.w3.org/1999/xlink">
    <!-- Generator: Sketch 46.2 (44496) - http://www.bohemiancoding.com/sketch -->
    <title>True Cost</title>
    <desc>Created with Sketch.</desc>
    <defs></defs>
    <g id="Page-1" stroke="none" stroke-width="1" fill="none" fill-rule="evenodd" stroke-linecap="round" stroke-linejoin="round">
        <g id="True-Cost" stroke="#949494" stroke-width="2">
            <g id="Page-1" transform="translate(12.000000, 11.000000)">
                <path d="M56.8627451,31.2096452 L46.2083871,20.5195818 L26.8973631,1.14384196 C26.3066477,0.551146919 25.5107929,0.211694302 24.6751991,0.198762774 L12.9371468,0.000479340678 C12.063962,-0.0146074423 11.2240721,0.327000429 10.60758,0.945558531 L8.30378985,3.25706921 L1.99602324,9.58489703 L0.942401742,10.6431271 C0.324835626,11.2616852 -0.0145572314,12.1054674 0.000479160994,12.9805008 L0.19702629,24.7589678 C0.210988655,25.5962843 0.548233456,26.3958838 1.13894887,26.9885788 L31.1054049,57.054382 C32.3620177,58.315206 34.3994489,58.315206 35.6571357,57.054382 L53.0520937,39.6011294 L54.5385484,38.1096931" id="Stroke-1"></path>
                <path d="M16.0594294,10.097471 C17.3919549,11.429017 17.3919549,13.589561 16.0594294,14.9221368 C14.7269039,16.2547126 12.5664414,16.2547126 11.2339159,14.9221368 C9.90242019,13.589561 9.90242019,11.429017 11.2339159,10.097471 C12.5664414,8.76489527 14.7269039,8.76489527 16.0594294,10.097471 Z" id="Stroke-3"></path>
            </g>
        </g>
    </g>
</svg>