<?xml version="1.0" encoding="UTF-8"?>
<svg width="80px" height="80px" viewBox="0 0 80 80" version="1.1" xmlns="http://www.w3.org/2000/svg" xmlns:xlink="http://www.w3.org/1999/xlink">
    <!-- Generator: Sketch 46.2 (44496) - http://www.bohemiancoding.com/sketch -->
    <title>Hardware</title>
    <desc>Created with Sketch.</desc>
    <defs></defs>
    <g id="Page-1" stroke="none" stroke-width="1" fill="none" fill-rule="evenodd">
        <g id="Hardware" fill-rule="nonzero" fill="#949494">
            <path d="M40,66.9285714 C40.5720092,66.9285714 41.0357143,67.3922765 41.0357143,67.9642857 C41.0357143,68.5362949 40.5720092,69 40,69 C23.9841033,69 11,56.0162289 11,40 C11,23.9844551 23.9844551,11 40,11 C56.0162289,11 69,23.9841033 69,40 C69,53.0813538 60.2637741,64.4415344 47.8530113,67.9247206 C47.3022813,68.0792877 46.730525,67.7581342 46.5759579,67.2074041 C46.4213909,66.6566741 46.7425444,66.0849179 47.2932744,65.9303508 C58.8157588,62.6964675 66.9285714,52.1469444 66.9285714,40 C66.9285714,25.1281099 54.8721986,13.0714286 40,13.0714286 C25.1284735,13.0714286 13.0714286,25.1284735 13.0714286,40 C13.0714286,54.8721986 25.1281099,66.9285714 40,66.9285714 Z M28.6071429,33.7857143 C28.6071429,30.9258175 30.9255966,28.6071429 33.7857143,28.6071429 C36.6455236,28.6071429 38.9642857,30.9259602 38.9642857,33.7857143 C38.9642857,36.6458796 36.6457139,38.9642857 33.7857143,38.9642857 C30.9254063,38.9642857 28.6071429,36.6460223 28.6071429,33.7857143 Z M41.0357143,33.7857143 C41.0357143,30.9258175 43.354168,28.6071429 46.2142857,28.6071429 C49.074095,28.6071429 51.3928571,30.9259602 51.3928571,33.7857143 C51.3928571,36.6458796 49.0742853,38.9642857 46.2142857,38.9642857 C43.3539777,38.9642857 41.0357143,36.6460223 41.0357143,33.7857143 Z M28.6071429,46.2142857 C28.6071429,43.3543889 30.9255966,41.0357143 33.7857143,41.0357143 C36.6455236,41.0357143 38.9642857,43.3545316 38.9642857,46.2142857 C38.9642857,49.074451 36.6457139,51.3928571 33.7857143,51.3928571 C30.9254063,51.3928571 28.6071429,49.0745937 28.6071429,46.2142857 Z M41.0357143,46.2142857 C41.0357143,43.3543889 43.354168,41.0357143 46.2142857,41.0357143 C49.074095,41.0357143 51.3928571,43.3545316 51.3928571,46.2142857 C51.3928571,49.074451 49.0742853,51.3928571 46.2142857,51.3928571 C43.3539777,51.3928571 41.0357143,49.0745937 41.0357143,46.2142857 Z M30.6785714,33.7857143 C30.6785714,35.5019717 32.0694569,36.8928571 33.7857143,36.8928571 C35.5017242,36.8928571 36.8928571,35.5018236 36.8928571,33.7857143 C36.8928571,32.069935 35.5015267,30.6785714 33.7857143,30.6785714 C32.0696544,30.6785714 30.6785714,32.0697869 30.6785714,33.7857143 Z M43.1071429,33.7857143 C43.1071429,35.5019717 44.4980283,36.8928571 46.2142857,36.8928571 C47.9302956,36.8928571 49.3214286,35.5018236 49.3214286,33.7857143 C49.3214286,32.069935 47.9300981,30.6785714 46.2142857,30.6785714 C44.4982258,30.6785714 43.1071429,32.0697869 43.1071429,33.7857143 Z M30.6785714,46.2142857 C30.6785714,47.9305431 32.0694569,49.3214286 33.7857143,49.3214286 C35.5017242,49.3214286 36.8928571,47.930395 36.8928571,46.2142857 C36.8928571,44.4985065 35.5015267,43.1071429 33.7857143,43.1071429 C32.0696544,43.1071429 30.6785714,44.4983583 30.6785714,46.2142857 Z M43.1071429,46.2142857 C43.1071429,47.9305431 44.4980283,49.3214286 46.2142857,49.3214286 C47.9302956,49.3214286 49.3214286,47.930395 49.3214286,46.2142857 C49.3214286,44.4985065 47.9300981,43.1071429 46.2142857,43.1071429 C44.4982258,43.1071429 43.1071429,44.4983583 43.1071429,46.2142857 Z" id="Combined-Shape"></path>
        </g>
    </g>
</svg>