<?xml version="1.0" encoding="UTF-8"?>
<svg width="80px" height="80px" viewBox="0 0 80 80" version="1.1" xmlns="http://www.w3.org/2000/svg" xmlns:xlink="http://www.w3.org/1999/xlink">
    <!-- Generator: Sketch 46.2 (44496) - http://www.bohemiancoding.com/sketch -->
    <title>Materials</title>
    <desc>Created with Sketch.</desc>
    <defs></defs>
    <g id="Page-1" stroke="none" stroke-width="1" fill="none" fill-rule="evenodd" stroke-linecap="round" stroke-linejoin="round">
        <g id="Materials" stroke="#949494" stroke-width="2">
            <g id="Page-1" transform="translate(12.000000, 11.000000)">
                <path d="M-0.000322222222,8.37691852 L-0.000322222222,35.5799926 L21.3694556,35.5799926 L21.3694556,17.1005481 L21.3694556,12.8257333 C21.3694556,10.4745852 23.2888259,8.54984444 25.6324556,8.54984444" id="Stroke-1"></path>
                <path d="M34.7571444,4.27524444 C34.7571444,6.62639259 32.8388481,8.55005926 30.4930704,8.55005926" id="Stroke-3"></path>
                <path d="M30.4932852,-0.000107407407 C32.839063,-0.000107407407 34.7573593,1.92463333 34.7573593,4.27578148" id="Stroke-5"></path>
                <path d="M30.4932852,8.55005926 L25.6341741,8.55005926 C23.2883963,8.55005926 21.3701,10.4748 21.3701,12.8259481" id="Stroke-7"></path>
                <path d="M25.6326704,8.55048889 L30.4928556,8.55048889 C32.8386333,8.55048889 34.7569296,6.62574815 34.7569296,4.27567407 C34.7569296,1.92452593 32.8386333,-0.000214814815 30.4928556,-0.000214814815 L-0.000107407407,-0.000214814815 L-0.000107407407,8.37648889" id="Stroke-9"></path>
                <path d="M21.3699926,12.8253037 C21.3699926,15.1764519 23.2882889,17.1001185 25.6329926,17.1001185 L34.7572519,17.1001185" id="Stroke-11"></path>
                <path d="M34.7571444,4.27524444 L34.7571444,17.0996889" id="Stroke-13"></path>
                <path d="M34.7571444,17.1006556 L25.6328852,17.1006556 C23.2881815,17.1006556 21.3698852,15.1759148 21.3698852,12.8258407 L21.3698852,17.1006556 L21.3698852,35.5790259 L21.3698852,52.6804333 C21.3698852,55.0315815 23.2881815,56.9552481 25.6328852,56.9552481 L49.0423296,56.9552481 L54.9948481,56.9552481 L56.1269222,56.9552481 L56.1269222,56.7823222 L56.1269222,50.0822481 L56.1269222,17.1006556 L34.7571444,17.1006556 Z" id="Stroke-15"></path>
            </g>
        </g>
    </g>
</svg>